<svg width="100%" height="100%" viewBox="0 0 336 370" fill="none" xmlns="http://www.w3.org/2000/svg">
<path d="M168.5 76.5C168.5 76.5 137.5 61.9677 104.5 54.5C86.0237 50.319 73.1949 52.2839 56.5 47.5C39.8051 42.7161 19 30 19 30C19 30 41 85.5 97.5 105.5C135.387 118.911 168.5 181.5 168.5 181.5V76.5Z" fill="#1C2028"/>
<path d="M37 152L49.5 111C49.5 111 43.5 147.5 76 161C108.5 174.5 131 149 131 149C131 149 149.178 173.524 156.5 191C163.822 208.476 168.5 238.5 168.5 238.5V369.5C168.5 369.5 157.5 305 125.5 248C93.5 191 37 152 37 152Z" fill="#1C2028"/>
<path d="M168.5 59V0C168.5 0 137.113 2.13053 118.5 9C100.527 15.6332 86.6267 19.0599 76 35C75 36.5 106 38.1243 125.5 43.5C145 48.8757 168.5 59 168.5 59Z" fill="#1C2028"/>
<path d="M102.5 238.5C74.5 195 31.5 166.5 31.5 166.5C31.5 166.5 30.1597 177.263 28.5 184C26.8403 190.737 23 201 23 201C23 201 67.0685 234.214 90.5 259.5C113.931 284.786 143 330.5 143 330.5C143 330.5 130.5 282 102.5 238.5Z" fill="#1C2028"/>
<path d="M86 278C54.0449 242 17.5 216.5 17.5 216.5C17.5 216.5 13.8195 225.74 10.5 231.5C7.18054 237.26 0.5 246 0.5 246C0.5 246 48.542 274.193 75 294.5C101.458 314.807 136 350 136 350C136 350 117.955 314 86 278Z" fill="#1C2028"/>
<path d="M94.5 119.5C83.4474 114.476 68 105.5 68 105.5C68 105.5 56.5 130.569 78 145.5C100.32 161 120.5 138.5 120.5 138.5C120.5 138.5 105.5 124.5 94.5 119.5Z" fill="#1C2028"/>
<path d="M167.5 76.3965C167.5 76.3965 198.5 61.8838 231.5 54.4263C249.976 50.2509 262.805 52.2132 279.5 47.4357C296.195 42.6583 317 29.9594 317 29.9594C317 29.9594 295 85.3843 238.5 105.357C200.613 118.75 167.5 181.254 167.5 181.254V76.3965Z" fill="#1C2028"/>
<path d="M299 151.794L286.5 110.85C286.5 110.85 292.5 147.3 260 160.782C227.5 174.264 205 148.798 205 148.798C205 148.798 186.822 173.289 179.5 190.742C172.178 208.194 167.5 238.177 167.5 238.177V369C167.5 369 178.5 304.587 210.5 247.664C242.5 190.742 299 151.794 299 151.794Z" fill="#1C2028"/>
<path d="M167.5 58.9202V0C167.5 0 198.887 2.12765 217.5 8.98782C235.473 15.612 249.373 19.0341 260 34.9526C261 36.4506 230 38.0727 210.5 43.4411C191 48.8095 167.5 58.9202 167.5 58.9202Z" fill="#1C2028"/>
<path d="M233.5 238.177C261.5 194.736 304.5 166.275 304.5 166.275C304.5 166.275 305.84 177.024 307.5 183.751C309.16 190.478 313 200.728 313 200.728C313 200.728 268.931 233.897 245.5 259.149C222.069 284.401 193 330.053 193 330.053C193 330.053 205.5 281.618 233.5 238.177Z" fill="#1C2028"/>
<path d="M250 277.624C281.955 241.673 318.5 216.207 318.5 216.207C318.5 216.207 322.181 225.434 325.5 231.187C328.819 236.939 335.5 245.667 335.5 245.667C335.5 245.667 287.458 273.822 261 294.101C234.542 314.381 200 349.526 200 349.526C200 349.526 218.045 313.575 250 277.624Z" fill="#1C2028"/>
<path d="M241.5 119.338C252.553 114.321 268 105.357 268 105.357C268 105.357 279.5 130.393 258 145.303C235.68 160.782 215.5 138.313 215.5 138.313C215.5 138.313 230.5 124.332 241.5 119.338Z" fill="#1C2028"/>
</svg>
