<svg width="40" height="40" viewBox="0 0 40 40" fill="none" xmlns="http://www.w3.org/2000/svg">
<path d="M8.33333 3.33301C6.49233 3.33301 5 4.83301 5 6.66634V19.9997V26.6663V36.6663C5 38.4997 6.49233 39.9997 8.33333 39.9997H31.6667C33.5083 39.9997 35 38.4997 35 36.6663V26.6663V19.9997V13.333L25 3.33301H8.33333Z" fill="#95A5A6"/>
<path d="M8.33333 1.6665C6.49233 1.6665 5 3.1665 5 4.99984V18.3332V24.9998V34.9998C5 36.8332 6.49233 38.3332 8.33333 38.3332H31.6667C33.5083 38.3332 35 36.8332 35 34.9998V24.9998V18.3332V11.6665L25 1.6665H8.33333Z" fill="#BDC3C7"/>
<path d="M35 11.6665L25 1.6665V8.33317C25 10.1665 26.4917 11.6665 28.3333 11.6665H35Z" fill="#95A5A6"/>
<path d="M10 13.333V14.9997H30V13.333H10ZM10 18.333V19.9997H30V18.333H10ZM10 23.333V24.9997H30V23.333H10ZM10 28.333V29.9997H30V28.333H10Z" fill="#95A5A6"/>
</svg>
