<svg width="40" height="40" viewBox="0 0 40 40" fill="none" xmlns="http://www.w3.org/2000/svg">
<path d="M6.66683 1.66699C4.82583 1.66699 3.3335 3.15933 3.3335 5.00033V10.0003V28.3337V33.3337V35.0003C3.3335 36.842 4.82583 38.3337 6.66683 38.3337H10.0002H30.0002H33.3335C35.1752 38.3337 36.6668 36.842 36.6668 35.0003V33.3337V28.3337V10.0003V5.00033C36.6668 3.15933 35.1752 1.66699 33.3335 1.66699H30.0002H10.0002H6.66683ZM5.8335 5.00033H7.50016C7.96033 5.00033 8.3335 5.37333 8.3335 5.83366V7.50032C8.3335 7.96066 7.96033 8.33366 7.50016 8.33366H5.8335C5.37333 8.33366 5.00016 7.96066 5.00016 7.50032V5.83366C5.00016 5.37333 5.37333 5.00033 5.8335 5.00033ZM32.5002 5.00033H34.1668C34.6268 5.00033 35.0002 5.37333 35.0002 5.83366V7.50032C35.0002 7.96066 34.6268 8.33366 34.1668 8.33366H32.5002C32.0402 8.33366 31.6668 7.96066 31.6668 7.50032V5.83366C31.6668 5.37333 32.0402 5.00033 32.5002 5.00033ZM5.8335 10.0003H7.50016C7.96033 10.0003 8.3335 10.3733 8.3335 10.8337V12.5003C8.3335 12.9607 7.96033 13.3337 7.50016 13.3337H5.8335C5.37333 13.3337 5.00016 12.9607 5.00016 12.5003V10.8337C5.00016 10.3733 5.37333 10.0003 5.8335 10.0003ZM32.5002 10.0003H34.1668C34.6268 10.0003 35.0002 10.3733 35.0002 10.8337V12.5003C35.0002 12.9607 34.6268 13.3337 34.1668 13.3337H32.5002C32.0402 13.3337 31.6668 12.9607 31.6668 12.5003V10.8337C31.6668 10.3733 32.0402 10.0003 32.5002 10.0003ZM5.8335 15.0003H7.50016C7.96033 15.0003 8.3335 15.3733 8.3335 15.8337V17.5003C8.3335 17.9603 7.96033 18.3337 7.50016 18.3337H5.8335C5.37333 18.3337 5.00016 17.9603 5.00016 17.5003V15.8337C5.00016 15.3733 5.37333 15.0003 5.8335 15.0003ZM32.5002 15.0003H34.1668C34.6268 15.0003 35.0002 15.3733 35.0002 15.8337V17.5003C35.0002 17.9603 34.6268 18.3337 34.1668 18.3337H32.5002C32.0402 18.3337 31.6668 17.9603 31.6668 17.5003V15.8337C31.6668 15.3733 32.0402 15.0003 32.5002 15.0003ZM5.8335 20.0003H7.50016C7.96033 20.0003 8.3335 20.3737 8.3335 20.8337V22.5003C8.3335 22.9603 7.96033 23.3337 7.50016 23.3337H5.8335C5.37333 23.3337 5.00016 22.9603 5.00016 22.5003V20.8337C5.00016 20.3737 5.37333 20.0003 5.8335 20.0003ZM32.5002 20.0003H34.1668C34.6268 20.0003 35.0002 20.3737 35.0002 20.8337V22.5003C35.0002 22.9603 34.6268 23.3337 34.1668 23.3337H32.5002C32.0402 23.3337 31.6668 22.9603 31.6668 22.5003V20.8337C31.6668 20.3737 32.0402 20.0003 32.5002 20.0003ZM5.8335 25.0003H7.50016C7.96033 25.0003 8.3335 25.3737 8.3335 25.8337V27.5003C8.3335 27.9603 7.96033 28.3337 7.50016 28.3337H5.8335C5.37333 28.3337 5.00016 27.9603 5.00016 27.5003V25.8337C5.00016 25.3737 5.37333 25.0003 5.8335 25.0003ZM32.5002 25.0003H34.1668C34.6268 25.0003 35.0002 25.3737 35.0002 25.8337V27.5003C35.0002 27.9603 34.6268 28.3337 34.1668 28.3337H32.5002C32.0402 28.3337 31.6668 27.9603 31.6668 27.5003V25.8337C31.6668 25.3737 32.0402 25.0003 32.5002 25.0003ZM5.8335 30.0003H7.50016C7.96033 30.0003 8.3335 30.3737 8.3335 30.8337V32.5003C8.3335 32.9603 7.96033 33.3337 7.50016 33.3337H5.8335C5.37333 33.3337 5.00016 32.9603 5.00016 32.5003V30.8337C5.00016 30.3737 5.37333 30.0003 5.8335 30.0003ZM32.5002 30.0003H34.1668C34.6268 30.0003 35.0002 30.3737 35.0002 30.8337V32.5003C35.0002 32.9603 34.6268 33.3337 34.1668 33.3337H32.5002C32.0402 33.3337 31.6668 32.9603 31.6668 32.5003V30.8337C31.6668 30.3737 32.0402 30.0003 32.5002 30.0003Z" fill="#E74C3C"/>
<path d="M3.3335 20V28.3333V33.3333V35C3.3335 36.8333 4.82583 38.3333 6.66683 38.3333H10.0002H30.0002H33.3335C35.1752 38.3333 36.6668 36.8333 36.6668 35V33.3333V28.3333V20H34.1668C34.6268 20 35.0002 20.3333 35.0002 20.8333V22.5C35.0002 22.8333 34.6268 23.3333 34.1668 23.3333H32.5002C32.0402 23.3333 31.6668 22.8333 31.6668 22.5V20.8333C31.6668 20.3333 32.0402 20 32.5002 20H7.50016C7.96033 20 8.3335 20.3333 8.3335 20.8333V22.5C8.3335 22.8333 7.96033 23.3333 7.50016 23.3333H5.8335C5.37333 23.3333 5.00016 22.8333 5.00016 22.5V20.8333C5.00016 20.3333 5.37333 20 5.8335 20H3.3335ZM5.8335 25H7.50016C7.96033 25 8.3335 25.3333 8.3335 25.8333V27.5C8.3335 27.8333 7.96033 28.3333 7.50016 28.3333H5.8335C5.37333 28.3333 5.00016 27.8333 5.00016 27.5V25.8333C5.00016 25.3333 5.37333 25 5.8335 25ZM32.5002 25H34.1668C34.6268 25 35.0002 25.3333 35.0002 25.8333V27.5C35.0002 27.8333 34.6268 28.3333 34.1668 28.3333H32.5002C32.0402 28.3333 31.6668 27.8333 31.6668 27.5V25.8333C31.6668 25.3333 32.0402 25 32.5002 25ZM5.8335 30H7.50016C7.96033 30 8.3335 30.3333 8.3335 30.8333V32.5C8.3335 32.8333 7.96033 33.3333 7.50016 33.3333H5.8335C5.37333 33.3333 5.00016 32.8333 5.00016 32.5V30.8333C5.00016 30.3333 5.37333 30 5.8335 30ZM32.5002 30H34.1668C34.6268 30 35.0002 30.3333 35.0002 30.8333V32.5C35.0002 32.8333 34.6268 33.3333 34.1668 33.3333H32.5002C32.0402 33.3333 31.6668 32.8333 31.6668 32.5V30.8333C31.6668 30.3333 32.0402 30 32.5002 30Z" fill="#C0392B"/>
<path d="M16.667 24.8936V14.8936L25.0002 19.8936L16.667 24.8936Z" fill="#ECF0F1"/>
</svg>
