<svg width="40" height="40" viewBox="0 0 40 40" fill="none" xmlns="http://www.w3.org/2000/svg">
<path d="M1.6665 11.666V13.3327V14.9993V18.3327V19.9993V21.666V23.3327V24.9993V28.3327V29.9993V33.3327V34.9993C1.6665 36.8327 3.15884 38.3327 4.99984 38.3327H19.9998H34.9998C36.8415 38.3327 38.3332 36.8327 38.3332 34.9993V33.3327V29.9993V23.3327V19.9993V14.9993V13.3327V11.666H1.6665Z" fill="#BDC3C7"/>
<path d="M4.99984 3.33301C3.15884 3.33301 1.6665 4.82534 1.6665 6.66634V11.6663H38.3332V6.66634C38.3332 4.82534 36.8415 3.33301 34.9998 3.33301H19.9998H4.99984Z" fill="#BDC3C7"/>
<path d="M1.6665 10V11.6667V13.3333V16.6667V18.3333V20V21.6667V23.3333V26.6667V28.3333V31.6667V33.3333C1.6665 35.175 3.15884 36.6667 4.99984 36.6667H19.9998H34.9998C36.8415 36.6667 38.3332 35.175 38.3332 33.3333V31.6667V28.3333V21.6667V18.3333V13.3333V11.6667V10H1.6665Z" fill="#ECF0F1"/>
<path d="M6.66634 6.66667C6.66634 7.10869 6.49075 7.53262 6.17819 7.84518C5.86563 8.15774 5.4417 8.33333 4.99967 8.33333C4.55765 8.33333 4.13372 8.15774 3.82116 7.84518C3.5086 7.53262 3.33301 7.10869 3.33301 6.66667C3.33301 6.22464 3.5086 5.80072 3.82116 5.48816C4.13372 5.17559 4.55765 5 4.99967 5C5.4417 5 5.86563 5.17559 6.17819 5.48816C6.49075 5.80072 6.66634 6.22464 6.66634 6.66667V6.66667Z" fill="#C0392B"/>
<path d="M11.6663 6.66667C11.6663 7.10869 11.4907 7.53262 11.1782 7.84518C10.8656 8.15774 10.4417 8.33333 9.99967 8.33333C9.55765 8.33333 9.13372 8.15774 8.82116 7.84518C8.5086 7.53262 8.33301 7.10869 8.33301 6.66667C8.33301 6.22464 8.5086 5.80072 8.82116 5.48816C9.13372 5.17559 9.55765 5 9.99967 5C10.4417 5 10.8656 5.17559 11.1782 5.48816C11.4907 5.80072 11.6663 6.22464 11.6663 6.66667V6.66667Z" fill="#27AE60"/>
<path d="M16.6663 6.66667C16.6663 7.10869 16.4907 7.53262 16.1782 7.84518C15.8656 8.15774 15.4417 8.33333 14.9997 8.33333C14.5576 8.33333 14.1337 8.15774 13.8212 7.84518C13.5086 7.53262 13.333 7.10869 13.333 6.66667C13.333 6.22464 13.5086 5.80072 13.8212 5.48816C14.1337 5.17559 14.5576 5 14.9997 5C15.4417 5 15.8656 5.17559 16.1782 5.48816C16.4907 5.80072 16.6663 6.22464 16.6663 6.66667V6.66667Z" fill="#F39C12"/>
</svg>
