<svg width="40" height="40" viewBox="0 0 40 40" fill="none" xmlns="http://www.w3.org/2000/svg">
<path d="M8.33333 3.33398C6.49233 3.33398 5 4.83398 5 6.66732V20.0007V26.6673V36.6673C5 38.5007 6.49233 40.0007 8.33333 40.0007H31.6667C33.5083 40.0007 35 38.5007 35 36.6673V26.6673V20.0007V13.334L25 3.33398H8.33333Z" fill="#C0392B"/>
<path d="M8.33333 1.66699C6.49233 1.66699 5 3.16699 5 5.00033V18.3337V25.0003V35.0003C5 36.8337 6.49233 38.3337 8.33333 38.3337H31.6667C33.5083 38.3337 35 36.8337 35 35.0003V25.0003V18.3337V11.667L25 1.66699H8.33333Z" fill="#E74C3C"/>
<path d="M35 11.667L25 1.66699V8.33366C25 10.167 26.4917 11.667 28.3333 11.667H35Z" fill="#C0392B"/>
<path d="M31.8531 18.334H31.3698C31.2198 18.5007 30.3681 19.6673 29.9998 20.0007C29.8998 20.1673 29.7498 20.3339 29.6648 20.3339C28.4265 21.8339 25.7931 24.334 24.2131 25.6674C24.0065 25.834 23.8065 26.0006 23.7698 26.0006C23.6598 26.1673 22.6065 26.8339 22.1331 27.1672C20.6248 28.1672 18.8548 29.0006 17.4798 29.3339C14.7663 30.0006 12.6492 29.8339 9.90048 28.5006C9.06982 28.1673 7.88632 27.5006 7.23748 27.0006C6.60082 26.5006 6.66798 26.5007 6.66898 27.334V28.1674L7.09865 28.334C7.64982 28.6673 8.83948 29.3339 9.61515 29.6672C10.2062 30.0005 10.3903 30.1673 10.0597 30.1673C9.75498 30.0006 8.02598 30.0006 7.36165 30.1673H6.69498C6.67965 30.1673 6.66715 30.5007 6.66715 30.834V31.5007H6.88932C7.84532 31.1674 9.89715 31.1672 10.8523 31.3339C11.977 31.5005 12.7683 31.6672 13.7188 32.1672C15.5323 33.0005 17.0365 34.6672 17.6915 36.3339L17.8248 36.6673H18.5582H19.2915L19.2515 36.5007C19.0165 35.5007 18.3565 34.3339 17.5398 33.5006C17.0032 32.8339 16.0553 32.1673 15.6818 31.8339H15.5558C15.4952 31.6673 14.8617 31.3339 14.591 31.3339C14.437 31.1672 14.3115 31.1672 14.3115 31.1672C14.3115 31.0006 14.4282 31.0006 14.5707 31.1672C14.9265 31.1672 16.3595 31.0007 17.0082 30.834C18.8048 30.5007 20.5048 29.8339 22.2231 28.8339C22.8398 28.5005 24.2398 27.3339 24.7998 27.0006C25.2165 26.5006 25.3498 26.5007 25.1798 26.6673C25.1198 26.834 25.0048 27.0005 24.9215 27.1672C24.8398 27.3339 24.6965 27.5006 24.6048 27.6673C23.3081 29.6673 22.4765 32.1673 22.2515 35.0007C22.2198 35.5007 22.1931 36.0006 22.1931 36.1672V36.6673H26.0798H29.9665L29.8398 36.5007C29.1398 35.5007 28.2715 33.3339 27.9798 31.8339C27.7398 30.6673 27.6681 28.8339 27.8181 27.8339C28.2548 25.1672 29.7431 22.8339 32.2998 21.3339C32.5631 21.1672 32.9031 21.0007 33.0548 20.834L33.3331 20.6674V20.1673C33.3331 19.8339 33.3131 19.5006 33.2881 19.5006C32.6815 19.8339 31.3315 20.6673 30.7115 21.0006C30.3798 21.3339 30.3598 21.3339 30.6715 21.0006C31.1181 20.5006 31.8882 19.6672 32.7065 18.6672L33.0882 18.334H32.2531H31.8531V18.334Z" fill="#ECF0F1"/>
</svg>
