<svg width="40" height="40" viewBox="0 0 40 40" fill="none" xmlns="http://www.w3.org/2000/svg">
<path d="M3.33333 10C1.49233 10 0 11.5 0 13.3333V16.6667V30V33.3333C0 35.1667 1.49238 36.6667 3.33333 36.6667H30H36.6667C38.5083 36.6667 40 35.1667 40 33.3333V16.6667V13.3333C40 11.5 38.5083 10 36.6667 10H30H10H3.33333Z" fill="#C0392B"/>
<path d="M3.33333 5C1.49233 5 0 6.5 0 8.33333V11.6667V25V28.3333C0 30.1667 1.49238 31.6667 3.33333 31.6667H30H36.6667C38.5083 31.6667 40 30.1667 40 28.3333V11.6667V8.33333C40 6.5 38.5083 5 36.6667 5H30H10H3.33333Z" fill="#C0392B"/>
<path d="M3.33333 8.3335C1.49233 8.3335 0 9.8335 0 11.6668V15.0002V28.3335V31.6668C0 33.5002 1.49238 35.0002 3.33333 35.0002H30H36.6667C38.5083 35.0002 40 33.5002 40 31.6668V15.0002V11.6668C40 9.8335 38.5083 8.3335 36.6667 8.3335H30H10H3.33333Z" fill="#E74C3C"/>
<path d="M30 23.3335C30 28.8568 25.5233 33.3335 20 33.3335C14.4772 33.3335 10 28.8568 10 23.3335C10 17.8107 14.4772 13.3335 20 13.3335C25.5233 13.3335 30 17.8107 30 23.3335Z" fill="#C0392B"/>
<path d="M30 21.667C30 27.1903 25.5233 31.667 20 31.667C14.4772 31.667 10 27.1903 10 21.667C10 16.1442 14.4772 11.667 20 11.667C25.5233 11.667 30 16.1442 30 21.667Z" fill="#ECF0F1"/>
<path d="M26.6659 21.644C26.6659 25.326 23.6815 28.3109 19.9994 28.3109C16.3173 28.3109 13.3329 25.326 13.3329 21.644C13.3329 17.9619 16.3173 14.9771 19.9994 14.9771C23.6815 14.9771 26.6659 17.9619 26.6659 21.644Z" fill="#34495E"/>
<path d="M25 21.5239C25 24.2853 22.7617 26.5239 20 26.5239C17.2383 26.5239 15 24.2853 15 21.5239C15 18.7625 17.2383 16.5239 20 16.5239C22.7617 16.5239 25 18.7625 25 21.5239Z" fill="#2C3E50"/>
<path d="M23.3333 21.6668C23.3333 23.5085 21.8416 25.0002 20 25.0002C18.1583 25.0002 16.6666 23.5085 16.6666 21.6668C16.6666 19.8252 18.1583 18.3335 20 18.3335C21.8416 18.3335 23.3333 19.8252 23.3333 21.6668Z" fill="#34495E"/>
<path d="M21.6667 21.6667C21.6667 22.5867 20.92 23.3333 20 23.3333C19.08 23.3333 18.3334 22.5867 18.3334 21.6667C18.3334 20.7467 19.08 20 20 20C20.92 20 21.6667 20.7467 21.6667 21.6667Z" fill="#3498DB"/>
<path d="M20.0001 18.2223C20.0001 19.1423 19.2534 19.889 18.3334 19.889C17.4134 19.889 16.6667 19.1423 16.6667 18.2223C16.6667 17.3023 17.4134 16.5557 18.3334 16.5557C19.2534 16.5557 20.0001 17.3023 20.0001 18.2223Z" fill="#ECF0F1"/>
<path d="M36.6666 13.3335H31.6666V15.0002H36.6666V13.3335Z" fill="#ECF0F1"/>
<path d="M36.6666 11.667H31.6666V13.3337H36.6666V11.667Z" fill="#C0392B"/>
<path d="M6.66671 3.3335C4.82571 3.3335 3.33337 4.82583 3.33337 6.66683H6.66671H11.6667H15C15 4.82583 13.5077 3.3335 11.6667 3.3335H6.66671Z" fill="#C0392B"/>
</svg>
