<svg id="Solid"
  enable-background="new 0 0 512 512"
  viewBox="0 0 512 512"
  xmlns="http://www.w3.org/2000/svg"
><path d="m216.5 162.8c-8.2 3.9-17.2 6-26.2 6.1-10-.1-19.8-2.6-28.5-7.5-3.4-1.8-6.6-4-9.7-6.3v49.6l10.3 10.3c3.1 3.1 8.2 3.1 11.3 0l12.7-12.7c3.1-3.1 8.2-3.1 11.3 0l12.7 12.7c3.1 3.1 8.2 3.1 11.3 0l12.7-12.7c3.1-3.1 8.2-3.1 11.3 0l12.7 12.7c3.1 3.1 8.2 3.1 11.3 0l12.7-12.7c3.1-3.1 8.2-3.1 11.3 0l12.7 12.7c3.1 3.1 8.2 3.1 11.3 0l10.4-10.3v-49.6c-3.1 2.4-6.4 4.5-9.8 6.4-8.7 4.8-18.5 7.3-28.4 7.4-9.1-.1-18-2.1-26.2-6-4 10-12.1 16.4-20 20.3-2.4 1.2-5.3 1.1-7.7-.3-9.6-5.7-16.1-12.4-19.5-20.1z"/><path d="m280 120c-11.2 0-21.7-5.9-27.5-15.6-2.5 2-5.1 4-7.8 6-2.8 2.1-6.7 2.1-9.5 0-2.7-2-5.3-4-7.8-6-9.1 15.1-28.8 20.1-43.9 11-15-9-20-28.3-11.2-43.4h-12.3c-.5 0-1.1-.1-1.6-.2-.1 0-.4-.1-.9-.2-3.7 7.6-5.6 15.9-5.6 24.3v37.2c5 5.8 11 10.7 17.8 14.4 14.1 7.4 28.8 7 43.9-1.3.3-4.4 1.3-8.8 2.8-12.9 1.1-3.2 4.1-5.4 7.6-5.4h32c3.6 0 6.7 2.4 7.7 5.8 1.2 4 1.9 8.1 2.2 12.3 15.2 8.4 30 9 44.2 1.5 6.8-3.7 12.9-8.6 17.9-14.4v-37.1c0-8.4-1.9-16.8-5.6-24.3-.5.1-.8.2-.9.2-.5.1-1 .2-1.6.2h-12.3c8.8 15.3 3.6 34.8-11.6 43.7-4.8 2.7-10.4 4.2-16 4.2z"/><path d="m263.6 391.1c-17.2-27.7-28.9-58.5-34.4-90.7-4-23.1-4.5-46.6-1.7-69.9-9.3 5-20.9 3.4-28.4-4.1l-7-7-7 7c-9.4 9.4-24.6 9.4-33.9 0l-2.7-2.7c-4.7 25.7-4.2 52 1.7 77.5 6.8 30.1 20.7 58.6 41.2 84.7 25.5 32.5 61.4 61.5 106.8 86.2h38.2c-30.4-24.5-54.8-51.7-72.8-81z"/><path d="m249.6 144h-19.5c-2.1 11.2 3.1 17.7 10.1 22.7 8-5.3 11-12.5 9.4-22.7z"/><path d="m186.1 56c-1.1-2.2-2.2-4.5-3.1-6.8-20.5-14.9-45.4-17.5-59.3-17.7 10.2 17.2 33 23.4 37.2 24.5z"/><path d="m240 94c21.5-16.8 35.7-34.1 43.1-52.9-3.7-.7-7.4-1.1-11.1-1.1h-64c-3.7 0-7.5.4-11.1 1.1 7.4 18.7 21.6 36.1 43.1 52.9z"/><path d="m265 93.6c3.1 8.3 12.3 12.5 20.6 9.4s12.5-12.3 9.4-20.6c-1.9-4.9-6-8.7-11.2-9.9-5.6 7.6-11.9 14.7-18.8 21.1z"/><path d="m356.3 31.5c-13.9.2-38.8 2.8-59.3 17.7-1 2.3-2 4.5-3.1 6.8h25.2c4.2-1 27-7.2 37.2-24.5z"/><path d="m312 233.4c-6.4 0-12.5-2.5-17-7l-7-7-7 7c-9.4 9.4-24.6 9.4-33.9 0l-2.4-2.4c-4.1 24.7-3.9 49.9.4 74.5 5.3 30.1 16.3 58.8 32.5 84.7 20.3 32.9 49.2 62.9 85.8 89.3 24.4 4.3 49 6.7 73.8 7.4-7-22.5-22.7-76.7-28.9-126.9-7.2-57.6-20.6-120.6-64.1-160.2v15.2c0 2.1-.8 4.2-2.3 5.7l-12.9 12.6c-4.5 4.6-10.6 7.1-17 7.1z"/><path d="m200 104c6.7 0 12.6-4.1 15-10.4-6.9-6.4-13.2-13.5-18.8-21.1-8.6 2.1-13.8 10.8-11.7 19.3 1.7 7.2 8.1 12.2 15.5 12.2z"/><path d="m266.2 472h-74.2v-16c0-8.8 7.2-16 16-16h13.9c13.4 11.2 28.2 21.9 44.3 32z"/></svg>
