<svg width="40" height="40" viewBox="0 0 40 40" fill="none" xmlns="http://www.w3.org/2000/svg">
<path d="M3.33333 8.33398C1.49233 8.33398 0 9.83398 0 11.6673V35.0007C0 36.834 1.49238 38.334 3.33333 38.334H36.6667C38.5083 38.334 40 36.834 40 35.0007V11.6673C40 9.83398 38.5083 8.33398 36.6667 8.33398H3.33333Z" fill="#4347FE"/>
<path d="M4.99984 1.66699C3.15884 1.66699 1.6665 3.16699 1.6665 5.00033V28.3337C1.6665 30.167 3.15884 31.667 4.99984 31.667H23.3332H31.6665H34.9998C36.8415 31.667 38.3332 30.167 38.3332 28.3337V13.3337V8.33366C38.3332 6.50033 36.8415 5.00033 34.9998 5.00033H31.6665H23.3332H21.6665L16.6665 1.66699H4.99984Z" fill="#4347FE"/>
<path d="M38.3332 23.3337V10.0003C38.3332 8.16699 36.8415 6.66699 34.9998 6.66699H16.6665H8.33317H4.99984C3.15884 6.66699 1.6665 8.16699 1.6665 10.0003V23.3337H38.3332Z" fill="#F7F7F7"/>
<path d="M3.33333 8.33398C1.49233 8.33398 0 9.83398 0 11.6673V21.6673V23.334V33.334C0 35.1673 1.49238 36.6673 3.33333 36.6673H36.6667C38.5083 36.6673 40 35.1673 40 33.334V23.334V21.6673V11.6673C40 9.83398 38.5083 8.33398 36.6667 8.33398H3.33333Z" fill="#5659EB"/>
</svg>
